<?xml version="1.0" standalone="no"?>
<!DOCTYPE svg PUBLIC "-//W3C//DTD SVG 20010904//EN"
 "http://www.w3.org/TR/2001/REC-SVG-20010904/DTD/svg10.dtd">
<svg version="1.0" xmlns="http://www.w3.org/2000/svg"
 width="300.000000pt" height="300.000000pt" viewBox="0 0 300.000000 300.000000"
 preserveAspectRatio="xMidYMid meet">
<metadata>
Created by potrace 1.10, written by Peter Selinger 2001-2011
</metadata>
<g transform="translate(0.000000,300.000000) scale(0.100000,-0.100000)"
fill="#000000" stroke="none">
<path d="M1441 2859 c-81 -17 -123 -79 -123 -176 0 -48 -5 -78 -20 -107 -25
-49 -32 -54 -64 -48 -13 2 -35 -3 -49 -12 -13 -9 -35 -16 -47 -16 -48 0 -102
-23 -139 -58 -21 -20 -70 -50 -109 -67 -42 -18 -69 -35 -67 -44 1 -8 -30 -30
-76 -53 -55 -29 -91 -56 -125 -95 -134 -155 -154 -173 -189 -173 -43 0 -95
-22 -144 -61 -41 -32 -49 -49 -24 -49 13 0 14 -4 4 -21 -17 -33 9 -44 38 -17
13 12 26 18 30 14 5 -4 -5 -19 -21 -33 -22 -19 -31 -21 -37 -12 -6 10 -9 9
-15 -4 -11 -28 3 -31 41 -8 44 26 44 26 38 1 -7 -25 3 -25 45 0 18 11 43 20
55 20 30 0 47 15 84 70 20 29 62 66 119 105 49 33 120 86 158 119 l70 59 33
-36 c32 -36 33 -36 68 -21 33 13 36 13 41 -3 3 -10 22 -54 42 -98 47 -105 53
-194 22 -344 -11 -57 -19 -105 -17 -107 2 -2 27 14 57 36 80 60 132 71 208 43
9 -4 2 8 -17 25 -36 35 -37 44 -12 165 7 33 7 72 0 123 -12 87 -8 113 33 200
22 47 28 71 23 93 -8 37 -70 133 -118 185 -37 39 -40 56 -8 56 29 0 171 -130
178 -162 3 -15 11 -33 19 -39 7 -6 27 -46 44 -90 31 -82 36 -132 21 -264 -6
-56 -8 -61 -41 -78 l-35 -19 30 5 c30 5 30 5 30 -41 1 -26 5 -77 9 -114 l9
-68 -64 5 -64 5 45 -13 c25 -7 55 -17 68 -21 21 -7 22 -6 22 63 0 39 3 71 7
71 5 0 43 -12 86 -26 51 -17 81 -33 89 -47 6 -12 32 -42 59 -68 34 -33 51 -43
58 -36 6 6 11 16 11 22 0 5 -5 3 -11 -5 -6 -8 -12 -11 -15 -5 -13 30 -127 137
-181 169 -34 20 -72 49 -83 63 -19 25 -28 93 -12 93 4 0 30 -23 57 -51 58 -59
144 -114 209 -133 66 -20 100 -50 103 -92 1 -19 -2 -32 -7 -29 -6 3 -7 -1 -4
-9 8 -20 24 -11 24 14 0 10 6 20 13 23 24 8 -66 83 -123 102 -94 31 -240 148
-259 208 -6 18 -9 77 -8 132 2 96 1 103 -37 190 -22 50 -48 102 -58 118 -15
21 -16 27 -5 27 8 0 20 -7 27 -15 19 -22 30 -19 68 23 19 20 39 37 45 37 6 0
15 18 19 40 5 21 17 48 26 60 21 23 42 69 42 90 0 8 10 25 21 36 17 17 20 29
16 61 -5 40 -48 98 -73 98 -6 0 -17 6 -23 14 -13 15 -83 18 -140 5z m26 -49
c-3 -11 3 -31 15 -45 19 -24 19 -27 4 -44 -9 -10 -16 -25 -16 -34 0 -9 -7 -17
-16 -17 -16 0 -16 11 1 53 4 10 3 17 -4 17 -5 0 -15 -18 -21 -39 -18 -68 -72
-65 -85 4 -4 19 -1 37 9 50 14 18 15 18 16 3 0 -10 4 -18 9 -18 5 0 7 9 4 20
-7 27 15 52 38 45 14 -5 17 -2 13 9 -4 12 0 16 16 16 17 0 21 -4 17 -20z m68
10 c3 -5 15 -10 26 -10 11 0 22 -7 25 -15 4 -8 15 -15 25 -15 11 0 19 -7 19
-16 0 -11 -6 -14 -22 -9 -21 5 -20 3 6 -19 30 -25 31 -56 1 -56 -18 0 -20 11
-4 27 7 7 5 12 -10 16 -16 4 -19 0 -18 -21 1 -18 -4 -27 -15 -30 -14 -3 -18 3
-19 25 l-1 28 -7 -30 c-4 -21 -13 -31 -29 -33 -18 -3 -22 1 -22 22 0 14 5 28
10 31 15 9 12 36 -6 56 -20 22 -10 59 16 59 10 0 22 -4 25 -10z m42 -248 c-14
-20 -28 -47 -32 -59 -3 -12 -20 -38 -37 -58 -32 -35 -61 -45 -74 -24 -3 6 -17
8 -30 5 -18 -5 -34 3 -66 31 -24 21 -44 38 -45 38 -2 1 12 28 30 61 27 50 36
59 62 61 17 1 45 5 63 9 20 4 38 2 47 -6 8 -6 20 -8 26 -4 7 4 26 10 43 14 41
8 46 -19 13 -68z m-362 -133 c48 -55 104 -140 110 -170 5 -22 -2 -47 -26 -97
-32 -66 -32 -70 -33 -212 -1 -80 -5 -168 -10 -196 -8 -49 -10 -52 -50 -64 -22
-7 -54 -21 -70 -33 l-29 -20 6 39 c4 21 9 84 13 140 l7 100 -48 110 c-27 60
-49 124 -49 143 -1 30 -5 35 -40 47 -37 13 -136 82 -136 94 0 4 24 17 53 30
28 13 68 39 88 58 38 35 102 60 155 61 22 1 38 -8 59 -30z m-355 -187 c9 -33
8 -38 -12 -52 -13 -8 -41 -31 -63 -51 -22 -19 -86 -70 -142 -112 -56 -42 -115
-96 -132 -120 -16 -24 -38 -50 -48 -57 -16 -13 -16 -13 1 8 26 30 4 28 -33 -4
l-32 -26 -27 27 c-15 15 -28 35 -29 44 -1 9 -5 25 -8 37 -7 23 18 38 82 49
l38 7 -30 -26 -30 -25 36 6 c32 5 38 2 44 -18 7 -22 8 -22 20 8 7 17 29 42 48
57 30 23 87 93 87 107 0 3 -21 -14 -47 -39 -83 -77 -87 -67 -10 25 41 48 85
98 98 109 29 26 161 94 171 88 4 -3 12 -21 18 -42z m118 -52 c19 -5 40 -6 45
-3 6 3 7 1 3 -5 -4 -7 -13 -12 -19 -12 -7 0 -24 -6 -39 -14 -24 -13 -28 -12
-47 8 -11 12 -27 41 -36 66 l-15 44 36 -37 c21 -20 53 -41 72 -47z"/>
<path d="M1357 2723 c-4 -3 -7 -11 -7 -17 0 -6 5 -5 12 2 6 6 9 14 7 17 -3 3
-9 2 -12 -2z"/>
<path d="M1767 1657 c15 -19 30 -32 32 -31 2 2 -2 10 -9 19 -9 11 -9 15 -1 15
7 0 20 -14 29 -31 24 -43 53 -81 59 -75 3 2 0 11 -7 18 -6 7 -20 28 -31 46
-17 29 -72 72 -92 72 -5 0 4 -15 20 -33z"/>
<path d="M1128 1602 c-48 -36 -48 -37 -48 -95 0 -36 -10 -87 -25 -134 -18 -53
-23 -79 -15 -87 5 -5 10 -42 11 -81 l1 -70 15 35 c8 19 20 61 26 93 l11 57 43
0 c69 0 83 -12 83 -71 0 -65 -39 -147 -97 -199 -23 -22 -47 -40 -51 -40 -5 0
-21 9 -35 21 -26 19 -26 23 -21 92 3 40 2 90 -3 112 l-9 40 -99 21 c-55 11
-173 37 -263 58 -90 20 -172 34 -182 31 -31 -10 -34 -42 -9 -90 18 -34 30 -45
55 -50 18 -3 135 -55 261 -116 125 -61 237 -113 247 -115 11 -2 24 -8 30 -14
37 -37 118 29 191 153 22 38 45 65 51 63 8 -3 23 22 39 62 15 36 53 117 86
179 32 63 59 119 59 127 0 16 -129 56 -180 56 -29 0 -39 -6 -59 -38 -45 -70
-134 -192 -138 -188 -3 2 7 26 20 53 25 48 62 162 55 167 -1 2 -24 -13 -50
-32z m285 -15 l38 -14 -37 -69 c-21 -38 -50 -96 -66 -129 -49 -105 -63 -129
-75 -133 -8 -2 -13 6 -13 21 0 14 -3 33 -6 42 -17 42 -129 61 -167 28 -20 -17
-20 -17 -14 0 4 11 10 30 13 43 4 14 13 24 24 24 22 0 61 46 121 141 l44 70
50 -5 c28 -4 67 -12 88 -19z m-292 -54 c-8 -15 -10 -15 -11 -2 0 17 10 32 18
25 2 -3 -1 -13 -7 -23z m-426 -222 c94 -22 198 -45 232 -51 60 -12 63 -14 69
-47 6 -34 0 -141 -9 -150 -3 -2 -94 41 -204 95 -109 55 -217 106 -241 112 -44
14 -78 51 -68 76 4 9 14 13 28 9 13 -3 100 -23 193 -44z"/>
<path d="M1491 1542 c-7 -26 -30 -74 -51 -108 -42 -66 -73 -134 -66 -142 3 -2
49 -33 103 -69 77 -50 102 -62 114 -54 19 11 107 -27 227 -98 l67 -40 87 17
87 18 -28 51 c-56 101 -174 253 -197 253 -9 0 -41 -25 -72 -55 -32 -31 -49
-53 -40 -49 27 9 116 -37 201 -105 42 -35 77 -67 77 -72 0 -5 -29 -9 -65 -9
-59 0 -71 4 -142 47 -43 26 -100 55 -126 64 l-48 16 42 49 c23 27 67 72 97 99
l55 51 -74 50 c-87 60 -151 97 -200 118 l-35 15 -13 -47z m154 -63 c55 -33
104 -64 109 -69 6 -6 -21 -40 -68 -86 -42 -43 -79 -88 -82 -101 -4 -13 -13
-23 -23 -22 -25 1 -166 94 -169 113 -2 9 16 49 41 89 24 40 50 87 57 105 7 17
18 32 24 32 7 0 57 -27 111 -61z m247 -206 c87 -112 89 -120 16 -65 -36 27
-79 55 -97 63 -17 8 -31 17 -31 21 0 9 42 38 56 38 6 0 31 -26 56 -57z"/>
<path d="M370 1449 c-160 -85 -237 -153 -258 -229 -9 -36 0 -80 17 -80 5 0 31
13 58 30 56 34 147 60 215 60 26 0 50 5 53 10 4 6 -3 30 -15 55 -20 40 -20 46
-6 73 19 37 33 42 98 36 l53 -5 -53 50 c-29 28 -56 51 -60 51 -4 0 -50 -23
-102 -51z m150 -20 c0 -6 -8 -8 -19 -4 -29 9 -68 -14 -86 -50 -20 -43 -19 -62
3 -68 13 -4 11 -5 -5 -6 -14 -1 -23 5 -23 13 0 9 -7 12 -20 9 -14 -4 -20 -14
-21 -37 -1 -29 -1 -29 -8 -6 -5 18 -9 21 -15 12 -4 -7 -5 -19 -2 -27 3 -8 1
-15 -4 -15 -6 0 -11 10 -11 23 -1 15 -4 10 -9 -13 -7 -32 -7 -33 -9 -7 -1 32
-20 27 -22 -6 -1 -15 -3 -17 -6 -6 -4 18 1 22 -86 -52 -30 -25 -41 -29 -47
-19 -4 7 -7 18 -5 24 2 6 6 23 9 38 12 56 95 126 204 175 48 21 54 22 41 6 -9
-10 -20 -25 -24 -33 -7 -12 -4 -12 11 1 53 46 154 77 154 48z m-153 -141 c-3
-8 -6 -5 -6 6 -1 11 2 17 5 13 3 -3 4 -12 1 -19z"/>
<path d="M2674 1041 c-148 -67 -143 -282 8 -345 75 -32 168 -9 221 53 31 37
41 83 35 151 -9 89 -89 160 -183 160 -22 0 -59 -9 -81 -19z m155 -16 c13 -12
12 -17 -4 -35 -24 -27 -73 -25 -109 4 l-28 23 23 17 c28 20 95 14 118 -9z
m-111 -45 c34 -28 23 -72 -25 -100 -34 -20 -36 -20 -55 -3 -35 31 -3 124 41
123 9 -1 27 -9 39 -20z m182 -12 c20 -34 26 -64 13 -71 -5 -2 -22 0 -40 5 -37
10 -57 52 -39 81 17 27 44 20 66 -15z m-90 -53 c0 -18 -15 -26 -34 -19 -21 8
-20 32 2 37 22 5 32 -1 32 -18z m97 -39 c8 -7 -24 -71 -45 -89 -11 -10 -31
-17 -44 -15 -20 3 -23 8 -22 47 1 58 29 84 76 71 17 -5 33 -11 35 -14z m-127
-52 c0 -21 -8 -42 -20 -54 -25 -25 -27 -25 -68 0 -28 17 -33 26 -30 52 2 23
11 35 37 49 31 16 36 16 57 2 18 -11 24 -25 24 -49z m-150 -3 c0 -36 26 -70
66 -87 30 -12 38 -12 62 0 16 8 34 11 41 6 20 -12 3 -30 -28 -30 -59 0 -95 14
-133 52 -30 30 -38 46 -38 74 0 31 2 35 15 24 8 -7 15 -24 15 -39z m270 -56
c-16 -30 -60 -62 -60 -43 0 14 61 80 68 73 3 -3 -1 -16 -8 -30z"/>
<path d="M2010 1033 c-51 -8 -130 -34 -130 -42 0 -30 162 -262 223 -319 l24
-23 13 31 c7 16 17 30 22 30 6 0 7 -8 3 -17 -22 -51 -17 -79 22 -125 111 -134
180 -208 193 -208 9 0 25 7 37 15 19 13 20 19 11 45 -5 17 -8 40 -5 51 4 16
-17 49 -82 130 -49 61 -96 130 -106 156 -10 27 -49 101 -87 166 -72 123 -70
121 -138 110z m90 -80 c17 -27 54 -95 82 -153 60 -121 70 -137 156 -241 53
-66 62 -83 62 -117 0 -59 -17 -62 -59 -11 -20 24 -65 75 -100 113 -62 69 -63
71 -58 117 8 62 -14 86 -48 53 -15 -15 -17 -15 -35 1 -50 45 -188 251 -176
262 8 9 69 21 108 22 35 1 41 -3 68 -46z"/>
<path d="M2444 476 c-3 -12 0 -34 5 -50 25 -65 -67 -118 -114 -66 -10 11 -27
20 -37 20 -18 0 -17 -6 15 -62 l34 -63 52 2 c78 3 220 40 291 76 68 34 110 81
110 124 0 31 -20 38 -67 22 -48 -16 -162 -13 -231 5 -51 14 -52 14 -58 -8z
m336 -27 c0 -12 -19 -41 -43 -64 -45 -46 -126 -77 -232 -90 l-50 -6 25 22 c20
16 21 20 6 15 -58 -19 -107 -25 -131 -16 -37 14 -31 19 15 13 34 -5 45 -2 66
18 38 35 49 60 33 70 -10 6 -8 9 9 9 19 0 22 -4 18 -22 -3 -13 -3 -18 0 -11 3
7 11 10 19 7 8 -3 17 6 24 23 l11 28 -4 -27 c-4 -37 2 -35 20 5 l15 32 -5 -33
c-4 -20 -2 -31 4 -27 6 3 10 17 10 31 0 13 5 24 11 24 7 0 9 -10 5 -26 -5 -17
-3 -23 4 -19 5 3 10 13 10 21 0 8 4 14 10 14 5 0 7 -8 3 -17 -6 -17 -5 -17 14
0 11 9 28 17 39 17 10 1 30 7 44 15 35 20 50 18 50 -6z"/>
</g>
</svg>
